<?xml version="1.0" standalone="no"?>
<!DOCTYPE svg PUBLIC "-//W3C//DTD SVG 20010904//EN"
 "http://www.w3.org/TR/2001/REC-SVG-20010904/DTD/svg10.dtd">
<svg version="1.0" xmlns="http://www.w3.org/2000/svg"
 width="556.000000pt" height="250.000000pt" viewBox="0 0 556.000000 250.000000"
 preserveAspectRatio="xMidYMid meet">

<g transform="translate(0.000000,250.000000) scale(0.100000,-0.100000)"
fill="#000000" stroke="none">
<path d="M3409 2377 c-114 -60 -144 -207 -62 -298 49 -54 81 -69 149 -69 108
0 184 71 192 179 11 154 -145 259 -279 188z"/>
<path d="M4780 2121 l0 -229 -257 -5 c-278 -5 -314 -10 -422 -64 -75 -37 -216
-179 -258 -258 -58 -112 -77 -195 -77 -335 1 -145 17 -218 72 -325 49 -96 183
-230 272 -273 205 -100 456 -75 606 61 29 26 55 47 58 47 3 0 6 -29 6 -65 l0
-65 155 0 155 0 0 870 0 870 -155 0 -155 0 0 -229z m-180 -582 c117 -64 175
-169 174 -314 -2 -185 -108 -312 -286 -345 -68 -13 -160 0 -221 32 -224 114
-252 454 -50 603 70 51 122 65 228 62 82 -2 97 -6 155 -38z"/>
<path d="M1065 1875 c-91 -16 -174 -57 -238 -117 -28 -27 -53 -48 -54 -48 -2
0 -3 32 -3 70 l0 70 -155 0 -155 0 0 -870 0 -870 155 0 155 0 0 230 0 230 233
0 c247 0 320 9 417 51 112 48 240 174 299 293 94 191 94 435 0 626 -34 68 -59
102 -128 170 -101 100 -180 144 -299 166 -93 16 -135 16 -227 -1z m207 -322
c65 -30 129 -92 163 -160 27 -53 30 -67 30 -163 0 -123 -16 -169 -86 -245
-130 -141 -367 -148 -501 -13 -164 163 -124 468 75 569 67 35 87 39 182 36 65
-2 103 -9 137 -24z"/>
<path d="M2342 1879 c-132 -22 -234 -80 -337 -191 -119 -129 -169 -267 -169
-463 1 -140 18 -215 72 -320 49 -96 183 -230 272 -273 204 -100 456 -74 608
63 28 25 53 45 56 45 3 0 6 -29 6 -65 l0 -65 155 0 155 0 0 620 0 620 -155 0
-155 0 0 -71 0 -71 -52 48 c-72 64 -173 110 -271 123 -89 12 -110 12 -185 0z
m315 -332 c72 -37 120 -88 156 -166 28 -58 31 -76 30 -151 0 -95 -16 -146 -63
-215 -62 -90 -161 -137 -286 -138 -67 0 -91 5 -140 27 -138 63 -212 192 -202
352 9 137 92 257 212 304 77 30 221 24 293 -13z"/>
<path d="M3340 1230 l0 -620 155 0 155 0 0 620 0 620 -155 0 -155 0 0 -620z"/>
</g>
</svg>
